<svg width="24" height="24" viewBox="0 0 24 24" fill="none" xmlns="http://www.w3.org/2000/svg">
<path d="M15.6956 8.03043C15.6956 9.99348 13.9335 11.5365 11.9065 11.1713C10.4639 10.9065 9.30434 9.34522 9.30434 7.87522V6.90739C9.30434 5.43739 10.4548 3.86695 11.9065 3.6113C13.9335 3.24608 15.6956 4.78913 15.6956 6.75217V8.03043Z" stroke="white" stroke-width="1.5" stroke-miterlimit="10" stroke-linecap="round" stroke-linejoin="round"/>
<path d="M12.5 22C18.299 22 23 17.299 23 11.5C23 5.70101 18.299 1 12.5 1C6.70101 1 2 5.70101 2 11.5C2 17.299 6.70101 22 12.5 22Z" stroke="white" stroke-width="1.5" stroke-miterlimit="10" stroke-linecap="round" stroke-linejoin="round"/>
<path d="M5.34175 19.1787C6.51045 16.5491 9.27697 14.6956 12.5 14.6956C15.7231 14.6956 18.4896 16.5491 19.6583 19.1787" stroke="white" stroke-width="1.5" stroke-miterlimit="10" stroke-linecap="round" stroke-linejoin="round"/>
</svg>
